<svg xmlns="http://www.w3.org/2000/svg" width="900" height="300" viewBox="0 0 900 300" role="img" aria-labelledby="title desc">
  <title id="title">Shukla A. — Actuary, Builder, Analyst</title>
  <desc id="desc">Shukla A. is a French actuary by training, builder, and analyst. An elegant actuarial projection accompanies his focus on judgement-led insurance strategy, savings, retirement, and AI tooling for insurers.</desc>
  <defs>
    <linearGradient id="panel" x1="0" y1="0" x2="1" y2="1">
      <stop offset="0" stop-color="#111c2c"/>
      <stop offset="1" stop-color="#09111d"/>
    </linearGradient>
    <linearGradient id="area" x1="0" y1="0" x2="0" y2="1">
      <stop offset="0" stop-color="#c9a96e" stop-opacity=".22"/>
      <stop offset="1" stop-color="#c9a96e" stop-opacity="0"/>
    </linearGradient>
  </defs>
  <style>
    text { font-family: Inter, ui-sans-serif, -apple-system, BlinkMacSystemFont, "Segoe UI", sans-serif; }
    .eyebrow { fill: #c9a96e; font-size: 10px; font-weight: 650; letter-spacing: 2.4px; }
    .name { fill: #f1f3f5; font-family: Georgia, "Times New Roman", serif; font-size: 35px; letter-spacing: .4px; }
    .role { fill: #d7dde5; font-family: Georgia, "Times New Roman", serif; font-size: 23px; }
    .subtle { fill: #8390a3; font-size: 11px; letter-spacing: .5px; }
    .label { fill: #c9a96e; font-size: 9px; font-weight: 700; letter-spacing: 1.5px; }
    .value { fill: #d7dde5; font-size: 14px; }
    .trace { fill: none; stroke: #d7b574; stroke-width: 2.5; stroke-linecap: round; stroke-linejoin: round; path-length: 1; stroke-dasharray: 1; stroke-dashoffset: 1; animation: draw 2.1s .25s cubic-bezier(.2,.75,.2,1) forwards; }
    .area { opacity: 0; animation: reveal .9s 1.1s ease-out forwards; }
    .point { fill: #d7b574; stroke: #111c2c; stroke-width: 2; opacity: 0; animation: reveal .3s ease-out forwards; }
    .story { opacity: 0; transform: translateY(4px); animation: settle .55s ease-out forwards; }
    .rule { stroke-dasharray: 1; stroke-dashoffset: 1; animation: draw 1.2s .15s ease-out forwards; }
    .static { opacity: 1 !important; transform: none !important; stroke-dashoffset: 0 !important; animation: none !important; }
    @keyframes draw { to { stroke-dashoffset: 0; } }
    @keyframes reveal { to { opacity: 1; } }
    @keyframes settle { to { opacity: 1; transform: none; } }
    @media (prefers-reduced-motion: reduce) {
      .trace, .area, .point, .story, .rule { opacity: 1; transform: none; stroke-dashoffset: 0; animation: none; }
    }
  </style>

  <rect x="1" y="1" width="898" height="298" rx="10" fill="url(#panel)" stroke="#26354a" stroke-width="2"/>
  <path class="rule" pathLength="1" d="M28 24 H872" stroke="#c9a96e" stroke-width="1" opacity=".55"/>

  <g aria-label="Actuarial long-term projection">
    <text x="65" y="57" class="eyebrow">LONG-TERM VIEW</text>
    <text x="405" y="57" text-anchor="end" class="subtle">SAVINGS · RETIREMENT</text>
    <path d="M65 87 H405 M65 138 H405 M65 190 H405 M65 241 H405" stroke="#314056" stroke-width="1" opacity=".68"/>
    <path d="M65 87 V241 M178 87 V241 M291 87 V241 M405 87 V241" stroke="#26354a" stroke-width="1" opacity=".7"/>
    <path class="area" d="M 65.0 229.6 L 95.9 224.0 L 126.8 216.9 L 157.7 208.3 L 188.6 198.4 L 219.5 187.0 L 250.5 174.3 L 281.4 160.1 L 312.3 144.4 L 343.2 128.8 L 374.1 113.2 L 405.0 99.0 L 405.0 241.0 L 65.0 241.0 Z" fill="url(#area)"/>
    <path class="trace" pathLength="1" d="M 65.0 229.6 L 95.9 224.0 L 126.8 216.9 L 157.7 208.3 L 188.6 198.4 L 219.5 187.0 L 250.5 174.3 L 281.4 160.1 L 312.3 144.4 L 343.2 128.8 L 374.1 113.2 L 405.0 99.0"/>
    <circle class="point" cx="65.0" cy="229.6" r="3" style="animation-delay:1.15s"/><circle class="point" cx="157.7" cy="208.3" r="3" style="animation-delay:1.36s"/><circle class="point" cx="250.5" cy="174.3" r="3" style="animation-delay:1.57s"/><circle class="point" cx="343.2" cy="128.8" r="3" style="animation-delay:1.78s"/><circle class="point" cx="405.0" cy="99.0" r="3" style="animation-delay:1.92s"/>
    <text x="65" y="267" class="subtle">TODAY</text>
    <text x="405" y="267" text-anchor="end" class="subtle">HORIZON</text>
    <text x="235" y="286" text-anchor="middle" class="subtle">projection · evidence · human judgement</text>
  </g>

  <path d="M455 50 V264" stroke="#26354a" stroke-width="1"/>
  <g aria-label="French tricolour" transform="translate(500 49)">
    <rect width="26" height="3" rx="1.5" fill="#315fa4"/>
    <rect x="26" width="26" height="3" fill="#e8ebef"/>
    <rect x="52" width="26" height="3" rx="1.5" fill="#a84f58"/>
  </g>
  <text x="500" y="94" class="name">Shukla A.</text>
  <text x="500" y="127" class="role">Actuary · Builder · Analyst</text>
  <text x="500" y="150" class="subtle">FRENCH ACTUARY BY TRAINING</text>
  <path d="M500 163 H846" stroke="#314056" stroke-width="1"/>
  <g class="story" style="animation-delay:0.65s"><text x="500" y="184" class="label">BUILDING</text><text x="612" y="184" class="value">AI tooling for insurers</text></g><g class="story" style="animation-delay:0.81s"><text x="500" y="218" class="label">INTEREST</text><text x="612" y="218" class="value">judgement-led strategy</text></g><g class="story" style="animation-delay:0.97s"><text x="500" y="252" class="label">FOCUS</text><text x="612" y="252" class="value">savings + retirement</text></g>
</svg>
